<svg width="22" height="28" viewBox="0 0 22 28" fill="none" xmlns="http://www.w3.org/2000/svg">
<path d="M11.0007 0.666992C9.58616 0.666992 8.22961 1.2289 7.22941 2.22909C6.22922 3.22928 5.66732 4.58584 5.66732 6.00033C5.66732 7.41481 6.22922 8.77137 7.22941 9.77156C8.22961 10.7718 9.58616 11.3337 11.0007 11.3337C12.4151 11.3337 13.7717 10.7718 14.7719 9.77156C15.7721 8.77137 16.334 7.41481 16.334 6.00033C16.334 4.58584 15.7721 3.22928 14.7719 2.22909C13.7717 1.2289 12.4151 0.666992 11.0007 0.666992ZM17.6673 14.0003H4.33398C3.27312 14.0003 2.2557 14.4218 1.50556 15.1719C0.755412 15.922 0.333984 16.9395 0.333984 18.0003C0.333984 20.9763 1.55798 23.3603 3.56598 24.9737C5.54198 26.5603 8.19265 27.3337 11.0007 27.3337C13.8087 27.3337 16.4593 26.5603 18.4353 24.9737C20.4407 23.3603 21.6673 20.9763 21.6673 18.0003C21.6673 16.9395 21.2459 15.922 20.4957 15.1719C19.7456 14.4218 18.7282 14.0003 17.6673 14.0003Z" fill="#F79E1B"/>
</svg>
