<svg width="28" height="29" viewBox="0 0 28 29" fill="none" xmlns="http://www.w3.org/2000/svg">
<path fill-rule="evenodd" clip-rule="evenodd" d="M14.0305 0C10.3383 0 6.97473 1.20199 4.98437 2.18404C4.80454 2.27266 4.63697 2.35967 4.48085 2.44345C4.17188 2.60941 3.90867 2.76409 3.69942 2.90024L5.96361 6.18557L7.02949 6.60369C11.1949 8.67494 16.781 8.67494 20.9473 6.60369L22.157 5.98497L24.2978 2.90024C23.8544 2.6151 23.3933 2.3576 22.9172 2.12926C20.9367 1.15768 17.6532 0 14.0313 0H14.0305ZM8.76483 3.71875C7.96305 3.57089 7.17117 3.37503 6.39356 3.13226C8.25804 2.31616 11.0364 1.45012 14.0305 1.45012C16.1042 1.45012 18.0652 1.86582 19.6869 2.3927C17.7864 2.65614 15.7585 3.10326 13.8261 3.6535C12.3058 4.08692 10.5288 4.0402 8.76483 3.71875ZM21.8105 7.79843L21.6094 7.89832C17.0271 10.1766 10.9489 10.1766 6.36658 7.89832L6.17613 7.80326C-0.70798 15.248 -5.96384 29 14.0305 29C34.0248 29 28.6406 14.991 21.8105 7.79843ZM13.1812 14.5012C12.7476 14.5012 12.3318 14.671 12.0252 14.9731C11.7187 15.2753 11.5464 15.6851 11.5464 16.1125C11.5464 16.5398 11.7187 16.9496 12.0252 17.2518C12.3318 17.5539 12.7476 17.7237 13.1812 17.7237V14.5012ZM14.816 12.89V12.0843H13.1812V12.89C12.3141 12.89 11.4824 13.2295 10.8693 13.8338C10.2561 14.4381 9.91163 15.2578 9.91163 16.1125C9.91163 16.9671 10.2561 17.7868 10.8693 18.3911C11.4824 18.9954 12.3141 19.3349 13.1812 19.3349V22.5574C12.4701 22.5574 11.8644 22.1103 11.6388 21.4835C11.6053 21.381 11.5513 21.2861 11.48 21.2045C11.4087 21.1229 11.3215 21.0562 11.2235 21.0084C11.1256 20.9606 11.0189 20.9326 10.9098 20.9261C10.8007 20.9196 10.6914 20.9348 10.5884 20.9707C10.4853 21.0065 10.3906 21.0624 10.3099 21.135C10.2291 21.2076 10.1639 21.2954 10.1182 21.3933C10.0725 21.4911 10.0472 21.597 10.0437 21.7047C10.0402 21.8123 10.0587 21.9196 10.098 22.0201C10.3235 22.6484 10.741 23.1925 11.2932 23.5773C11.8454 23.962 12.505 24.1687 13.1812 24.1687V24.9743H14.816V24.1687C15.6832 24.1687 16.5148 23.8292 17.128 23.2248C17.7411 22.6205 18.0856 21.8008 18.0856 20.9462C18.0856 20.0915 17.7411 19.2719 17.128 18.6675C16.5148 18.0632 15.6832 17.7237 14.816 17.7237V14.5012C15.5271 14.5012 16.1328 14.9483 16.3584 15.5751C16.3919 15.6776 16.4459 15.7725 16.5172 15.8541C16.5886 15.9358 16.6758 16.0025 16.7737 16.0503C16.8716 16.0981 16.9783 16.1261 17.0874 16.1325C17.1965 16.139 17.3058 16.1239 17.4089 16.088C17.5119 16.0521 17.6066 15.9962 17.6874 15.9236C17.7681 15.851 17.8333 15.7632 17.879 15.6654C17.9247 15.5675 17.9501 15.4617 17.9535 15.354C17.957 15.2463 17.9385 15.1391 17.8992 15.0386C17.6738 14.4102 17.2562 13.8662 16.704 13.4814C16.1519 13.0966 15.4923 12.89 14.816 12.89ZM14.816 19.3349V22.5574C15.2496 22.5574 15.6654 22.3877 15.972 22.0855C16.2786 21.7833 16.4508 21.3735 16.4508 20.9462C16.4508 20.5189 16.2786 20.109 15.972 19.8069C15.6654 19.5047 15.2496 19.3349 14.816 19.3349Z" fill="white"/>
</svg>
