<svg width="24" height="17" viewBox="0 0 24 17" fill="none" xmlns="http://www.w3.org/2000/svg">
<path fill-rule="evenodd" clip-rule="evenodd" d="M14.6456 15.336C14.6456 15.573 14.7438 15.8003 14.9186 15.9678C15.0935 16.1354 15.3306 16.2295 15.5778 16.2295H23.0362C23.2834 16.2295 23.5206 16.1354 23.6954 15.9678C23.8703 15.8003 23.9685 15.573 23.9685 15.336V8.18848C23.9685 7.95152 23.8703 7.72427 23.6954 7.55672C23.5206 7.38916 23.2834 7.29503 23.0362 7.29503C22.7889 7.29503 22.5518 7.38916 22.377 7.55672C22.2021 7.72427 22.1039 7.95152 22.1039 8.18848V12.8344L15.3671 4.94169C15.2847 4.84523 15.182 4.76638 15.0659 4.71021C14.9497 4.65405 14.8225 4.62181 14.6925 4.61558C14.5626 4.60936 14.4327 4.62927 14.3112 4.67405C14.1898 4.71883 14.0795 4.78748 13.9874 4.87558L9.16368 9.49827L2.34676 0.515563C2.19764 0.33384 1.98081 0.214588 1.74186 0.182865C1.5029 0.151144 1.26042 0.209421 1.06537 0.345453C0.870311 0.481484 0.737871 0.68468 0.695878 0.912335C0.653885 1.13999 0.705607 1.37438 0.840177 1.56625L8.29851 11.3942C8.37768 11.4987 8.47954 11.5855 8.59709 11.6486C8.71463 11.7118 8.84507 11.7498 8.9794 11.76C9.11374 11.7701 9.24878 11.7523 9.37523 11.7077C9.50168 11.663 9.61653 11.5926 9.71187 11.5014L14.5766 6.83759L21.069 14.4426H15.5778C15.3306 14.4426 15.0935 14.5367 14.9186 14.7043C14.7438 14.8718 14.6456 15.0991 14.6456 15.336Z" fill="#207005"/>
</svg>
