<svg width="24" height="24" viewBox="0 0 24 24" fill="none" xmlns="http://www.w3.org/2000/svg">
<path d="M7.81039 9.75H16.1894C16.3377 9.75003 16.4827 9.79404 16.606 9.87645C16.7293 9.95886 16.8254 10.076 16.8821 10.213C16.9389 10.35 16.9538 10.5008 16.9248 10.6463C16.8959 10.7917 16.8245 10.9254 16.7196 11.0302L12.5301 15.2197C12.3895 15.3603 12.1988 15.4393 11.9999 15.4393C11.801 15.4393 11.6103 15.3603 11.4696 15.2197L7.28014 11.0302C7.17528 10.9254 7.10388 10.7917 7.07495 10.6463C7.04602 10.5008 7.06088 10.35 7.11763 10.213C7.17438 10.076 7.27049 9.95886 7.39379 9.87645C7.5171 9.79404 7.66207 9.75003 7.81039 9.75Z" fill="#858D9D"/>
</svg>
