<svg width="42" height="41" viewBox="0 0 42 41" fill="none" xmlns="http://www.w3.org/2000/svg">
<path fill-rule="evenodd" clip-rule="evenodd" d="M25.6444 12.7964C25.8434 12.6677 25.9808 12.4618 26.0266 12.224C26.0723 11.9862 26.0226 11.736 25.8883 11.5283L21.8376 5.26585C21.7033 5.05823 21.4955 4.91025 21.2598 4.85444C21.0242 4.79864 20.78 4.83958 20.5811 4.96828L14.5795 8.85018C14.3806 8.97887 14.2431 9.18476 14.1974 9.42257C14.1516 9.66037 14.2014 9.91061 14.3357 10.1182C14.4699 10.3258 14.6778 10.4738 14.9134 10.5296C15.1491 10.5854 15.3932 10.5445 15.5922 10.4158L19.4932 7.89256L16.5248 17.8357C16.4885 17.9574 16.4781 18.0864 16.494 18.2144C16.51 18.3425 16.552 18.4668 16.6173 18.5793C16.6827 18.6918 16.7699 18.7901 16.8735 18.8677C16.9771 18.9454 17.0946 19.0007 17.2186 19.0302L23.7199 20.5699L19.8798 31.1723C19.8082 31.3963 19.8258 31.6431 19.9289 31.861C20.0321 32.0788 20.2127 32.2508 20.4329 32.3407C20.653 32.4306 20.8956 32.4314 21.1095 32.343C21.3235 32.2547 21.4922 32.0839 21.5802 31.8667L25.7817 20.2666C25.8264 20.1434 25.844 20.0107 25.8332 19.8777C25.8224 19.7447 25.7834 19.6146 25.719 19.4962C25.6546 19.3779 25.5663 19.2742 25.4601 19.1923C25.354 19.1104 25.2325 19.0521 25.1041 19.0217L18.546 17.4699L21.4056 7.88806L24.3879 12.4988C24.5222 12.7064 24.73 12.8544 24.9656 12.9102C25.2013 12.966 25.4455 12.9251 25.6444 12.7964Z" fill="#8D0D05"/>
</svg>
